<mxfile host="app.diagrams.net" modified="2021-08-08T18:05:42.669Z" agent="5.0 (Windows NT 10.0; Win64; x64) AppleWebKit/537.36 (KHTML, like Gecko) Chrome/92.0.4515.131 Safari/537.36" etag="T_HaDhFYaApFVLAYYKJQ" version="14.8.0" type="github">
  <diagram id="5KlWsrK_m3L7eQxBu6EQ" name="Page-1">
    <mxGraphModel dx="1422" dy="737" grid="1" gridSize="10" guides="1" tooltips="1" connect="1" arrows="1" fold="1" page="1" pageScale="1" pageWidth="827" pageHeight="1169" math="0" shadow="0">
      <root>
        <mxCell id="0" />
        <mxCell id="1" parent="0" />
        <mxCell id="LKuwhBt1p_UqeXmo-CNm-6" value="schreibt" style="edgeStyle=orthogonalEdgeStyle;rounded=0;orthogonalLoop=1;jettySize=auto;html=1;" edge="1" parent="1" source="LKuwhBt1p_UqeXmo-CNm-1" target="LKuwhBt1p_UqeXmo-CNm-5">
          <mxGeometry relative="1" as="geometry" />
        </mxCell>
        <mxCell id="LKuwhBt1p_UqeXmo-CNm-1" value="Entwickler&lt;br&gt;" style="shape=umlActor;verticalLabelPosition=bottom;verticalAlign=top;html=1;outlineConnect=0;" vertex="1" parent="1">
          <mxGeometry x="80" y="80" width="40" height="70" as="geometry" />
        </mxCell>
        <mxCell id="LKuwhBt1p_UqeXmo-CNm-5" value="Dashboard Code" style="rounded=1;whiteSpace=wrap;html=1;" vertex="1" parent="1">
          <mxGeometry x="190" y="85" width="120" height="60" as="geometry" />
        </mxCell>
        <mxCell id="LKuwhBt1p_UqeXmo-CNm-10" value="liest" style="edgeStyle=orthogonalEdgeStyle;rounded=0;orthogonalLoop=1;jettySize=auto;html=1;" edge="1" parent="1" source="LKuwhBt1p_UqeXmo-CNm-8" target="LKuwhBt1p_UqeXmo-CNm-5">
          <mxGeometry relative="1" as="geometry" />
        </mxCell>
        <mxCell id="LKuwhBt1p_UqeXmo-CNm-13" value="erstellt" style="edgeStyle=orthogonalEdgeStyle;rounded=0;orthogonalLoop=1;jettySize=auto;html=1;entryX=0;entryY=0.5;entryDx=0;entryDy=0;" edge="1" parent="1" source="LKuwhBt1p_UqeXmo-CNm-8" target="LKuwhBt1p_UqeXmo-CNm-12">
          <mxGeometry relative="1" as="geometry" />
        </mxCell>
        <mxCell id="LKuwhBt1p_UqeXmo-CNm-8" value="Scripting Library" style="rounded=1;whiteSpace=wrap;html=1;" vertex="1" parent="1">
          <mxGeometry x="380" y="85" width="120" height="60" as="geometry" />
        </mxCell>
        <mxCell id="LKuwhBt1p_UqeXmo-CNm-12" value="Dashboard JSON" style="rounded=1;whiteSpace=wrap;html=1;" vertex="1" parent="1">
          <mxGeometry x="560" y="85" width="120" height="60" as="geometry" />
        </mxCell>
      </root>
    </mxGraphModel>
  </diagram>
</mxfile>
